<svg xmlns="http://www.w3.org/2000/svg" viewBox="0 0 64 64" width="64" height="64">
  <defs>
    <linearGradient id="fobg" x1="0" y1="0" x2="1" y2="1">
      <stop offset="0" stop-color="#0B2540"/><stop offset="1" stop-color="#16406F"/>
    </linearGradient>
    <linearGradient id="fofl" x1="0" y1="1" x2="1" y2="0">
      <stop offset="0" stop-color="#6FB4F0"/><stop offset=".5" stop-color="#42E8E0"/><stop offset="1" stop-color="#0EA47E"/>
    </linearGradient>
  </defs>
  <rect width="64" height="64" rx="16" fill="url(#fobg)"/>
  <rect x="1" y="1" width="62" height="62" rx="15" fill="none" stroke="#fff" stroke-opacity=".06"/>
  <g transform="translate(1,-1)">
    <path d="M11 52 C 11 41, 20 43, 23 34 C 26 25, 30 19, 38 16" fill="none" stroke="url(#fofl)" stroke-width="5" stroke-linecap="round"/>
    <path d="M31 21 L38 14 L45 21" fill="none" stroke="url(#fofl)" stroke-width="5" stroke-linecap="round" stroke-linejoin="round"/>
    <g stroke="#42E8E0" stroke-width="1.9" opacity=".8">
      <line x1="33" y1="37" x2="45" y2="31"/><line x1="45" y1="31" x2="51" y2="43"/>
      <line x1="51" y1="43" x2="39" y2="49"/><line x1="39" y1="49" x2="33" y2="37"/>
      <line x1="45" y1="31" x2="39" y2="49"/>
    </g>
    <g fill="#5FD2E8">
      <circle cx="33" cy="37" r="3.2"/><circle cx="45" cy="31" r="3.2"/>
      <circle cx="51" cy="43" r="3.2"/><circle cx="39" cy="49" r="3.2"/>
    </g>
  </g>
</svg>
